<svg width="296" height="57" viewBox="0 0 296 57" fill="none" xmlns="http://www.w3.org/2000/svg">
<path d="M29.4678 43.0647L25.6231 28.9217C25.44 28.2259 25.2203 27.3838 24.964 26.3951C24.7077 25.4065 24.4514 24.3904 24.1951 23.3468C23.9388 22.285 23.7008 21.3055 23.4811 20.4084C23.2797 19.5113 23.124 18.8156 23.0142 18.3212H22.7945C22.703 18.8156 22.5565 19.5113 22.3551 20.4084C22.1537 21.3055 21.9249 22.285 21.6686 23.3468C21.4122 24.4087 21.1559 25.4431 20.8996 26.4501C20.6616 27.457 20.4419 28.3175 20.2405 29.0315L16.2036 43.0647H9.11831L0.605023 12.664H7.14103L11.0956 27.7682C11.3519 28.7935 11.5991 29.9011 11.8371 31.0912C12.0934 32.2812 12.3131 33.4163 12.4962 34.4965C12.6792 35.5767 12.8166 36.4646 12.9081 37.1603H13.1278C13.201 36.666 13.3017 36.0435 13.4299 35.2929C13.558 34.5239 13.7045 33.7275 13.8693 32.9037C14.0341 32.0615 14.1988 31.2743 14.3636 30.5419C14.5284 29.7913 14.684 29.1871 14.8305 28.7294L19.499 12.664H26.5568L31.0332 28.7294C31.2346 29.4251 31.4543 30.3039 31.6923 31.3658C31.9303 32.4094 32.1408 33.4621 32.3239 34.5239C32.5253 35.5675 32.6534 36.4372 32.7084 37.1329H32.9281C33.0013 36.5104 33.1295 35.6682 33.3125 34.6063C33.5139 33.5262 33.7428 32.3819 33.9991 31.1736C34.2554 29.9469 34.5209 28.8118 34.7955 27.7682L38.8324 12.664H45.2586L36.6904 43.0647H29.4678ZM77.3894 27.8232C77.3894 30.3497 77.0599 32.5924 76.4008 34.5514C75.7417 36.5104 74.7805 38.1673 73.5172 39.5221C72.254 40.8586 70.7344 41.8838 68.9585 42.5978C67.1826 43.2936 65.1779 43.6414 62.9443 43.6414C60.8571 43.6414 58.9439 43.2936 57.2047 42.5978C55.4654 41.8838 53.955 40.8586 52.6734 39.5221C51.4101 38.1673 50.4307 36.5104 49.7349 34.5514C49.0392 32.5924 48.6914 30.3497 48.6914 27.8232C48.6914 24.4728 49.2681 21.635 50.4215 19.3099C51.5932 16.9664 53.2593 15.1814 55.4196 13.9547C57.58 12.7281 60.1523 12.1148 63.1365 12.1148C65.9377 12.1148 68.4093 12.7281 70.5513 13.9547C72.6934 15.1814 74.3686 16.9664 75.5769 19.3099C76.7852 21.6533 77.3894 24.4911 77.3894 27.8232ZM55.3372 27.8232C55.3372 30.0385 55.6027 31.9333 56.1336 33.5078C56.6829 35.0823 57.5251 36.2907 58.6602 37.1329C59.7953 37.9567 61.2599 38.3687 63.0541 38.3687C64.8483 38.3687 66.313 37.9567 67.4481 37.1329C68.5832 36.2907 69.4162 35.0823 69.9471 33.5078C70.4781 31.9333 70.7435 30.0385 70.7435 27.8232C70.7435 25.6079 70.4781 23.7313 69.9471 22.1934C69.4162 20.6372 68.5832 19.4563 67.4481 18.6508C66.313 17.8269 64.8392 17.415 63.0267 17.415C60.3537 17.415 58.4039 18.3121 57.1772 20.1063C55.9506 21.9005 55.3372 24.4728 55.3372 27.8232ZM91.2578 0.36094V21.0125C91.2578 21.9462 91.2212 22.9715 91.148 24.0883C91.0747 25.1868 91.0015 26.2212 90.9283 27.1915H91.0656C91.5416 26.5507 92.1092 25.8001 92.7683 24.9396C93.4457 24.0791 94.0864 23.3285 94.6906 22.6877L103.973 12.6915H111.388L99.2219 25.7635L112.184 43.0922H104.604L94.8828 29.7455L91.2578 32.8488V43.0922H84.8042V0.36094H91.2578ZM132.643 12.1148C136.25 12.1148 139.143 13.433 141.321 16.0693C143.518 18.7057 144.617 22.6237 144.617 27.8232C144.617 31.2651 144.104 34.1669 143.079 36.5287C142.072 38.8721 140.653 40.648 138.822 41.8564C137.01 43.0464 134.895 43.6414 132.479 43.6414C130.941 43.6414 129.604 43.44 128.469 43.0372C127.334 42.6345 126.364 42.1127 125.558 41.4719C124.753 40.8128 124.075 40.0988 123.526 39.3298H123.141C123.233 40.0622 123.315 40.8769 123.389 41.774C123.48 42.6528 123.526 43.4583 123.526 44.1907V56.5761H117.045V12.6915H122.318L123.224 16.8932H123.526C124.093 16.0327 124.78 15.2363 125.586 14.504C126.409 13.7717 127.398 13.195 128.552 12.7739C129.723 12.3345 131.087 12.1148 132.643 12.1148ZM130.913 17.3875C129.137 17.3875 127.709 17.7445 126.629 18.4585C125.567 19.1543 124.789 20.207 124.295 21.6167C123.819 23.0264 123.563 24.7932 123.526 26.9169V27.8232C123.526 30.0751 123.755 31.9883 124.213 33.5628C124.689 35.119 125.467 36.309 126.547 37.1329C127.645 37.9384 129.128 38.3412 130.996 38.3412C132.57 38.3412 133.87 37.911 134.895 37.0505C135.939 36.19 136.717 34.9633 137.23 33.3705C137.742 31.7777 137.999 29.9011 137.999 27.7408C137.999 24.4636 137.413 21.9188 136.241 20.1063C135.088 18.2938 133.312 17.3875 130.913 17.3875ZM158.568 43.0922H152.087V0.36094H158.568V43.0922ZM179.714 12.1148C183.558 12.1148 186.46 12.9661 188.419 14.6688C190.396 16.3714 191.385 19.0261 191.385 22.6328V43.0922H186.799L185.563 38.7806H185.343C184.483 39.8791 183.595 40.7853 182.68 41.4994C181.764 42.2134 180.702 42.7443 179.494 43.0922C178.304 43.4583 176.848 43.6414 175.127 43.6414C173.315 43.6414 171.695 43.3119 170.267 42.6528C168.839 41.9754 167.713 40.9501 166.889 39.577C166.065 38.2039 165.653 36.4646 165.653 34.3592C165.653 31.2285 166.816 28.8759 169.141 27.3014C171.484 25.7269 175.018 24.8572 179.741 24.6925L185.014 24.5002V22.9074C185.014 20.802 184.52 19.3007 183.531 18.4036C182.561 17.5065 181.187 17.058 179.412 17.058C177.892 17.058 176.418 17.2777 174.99 17.7171C173.562 18.1565 172.171 18.6966 170.816 19.3373L168.729 14.7786C170.212 13.9914 171.896 13.3506 173.782 12.8563C175.686 12.3619 177.663 12.1148 179.714 12.1148ZM184.986 28.5646L181.059 28.702C177.837 28.8118 175.576 29.3611 174.276 30.3497C172.976 31.3383 172.326 32.6931 172.326 34.4141C172.326 35.9154 172.775 37.0139 173.672 37.7096C174.569 38.387 175.75 38.7257 177.215 38.7257C179.448 38.7257 181.297 38.094 182.762 36.8308C184.245 35.5492 184.986 33.6726 184.986 31.201V28.5646ZM212.668 43.6414C209.794 43.6414 207.304 43.083 205.199 41.9662C203.093 40.8494 201.473 39.1376 200.338 36.8308C199.203 34.5239 198.635 31.5946 198.635 28.0429C198.635 24.3446 199.258 21.3238 200.503 18.9803C201.748 16.6369 203.468 14.9068 205.665 13.79C207.881 12.6732 210.416 12.1148 213.272 12.1148C215.085 12.1148 216.724 12.2979 218.188 12.664C219.671 13.0119 220.925 13.4421 221.951 13.9547L220.028 19.1176C218.911 18.6599 217.767 18.2755 216.595 17.9642C215.424 17.653 214.298 17.4974 213.218 17.4974C211.442 17.4974 209.959 17.891 208.769 18.6782C207.597 19.4655 206.718 20.6372 206.132 22.1934C205.565 23.7496 205.281 25.6811 205.281 27.9879C205.281 30.2215 205.574 32.1073 206.16 33.6452C206.746 35.1647 207.615 36.3181 208.769 37.1054C209.922 37.8743 211.341 38.2588 213.025 38.2588C214.691 38.2588 216.183 38.0574 217.502 37.6546C218.82 37.2519 220.065 36.7301 221.237 36.0893V41.6916C220.083 42.3507 218.847 42.8358 217.529 43.1471C216.211 43.4766 214.591 43.6414 212.668 43.6414ZM240.488 12.1148C243.197 12.1148 245.522 12.6732 247.463 13.79C249.404 14.9068 250.896 16.4904 251.939 18.5409C252.983 20.5914 253.505 23.0447 253.505 25.9008V29.3611H233.21C233.283 32.3087 234.071 34.5789 235.572 36.1717C237.091 37.7645 239.215 38.5609 241.943 38.5609C243.884 38.5609 245.623 38.3778 247.161 38.0117C248.717 37.6272 250.319 37.0688 251.967 36.3365V41.5817C250.447 42.2958 248.9 42.8175 247.326 43.1471C245.751 43.4766 243.865 43.6414 241.668 43.6414C238.684 43.6414 236.057 43.0647 233.787 41.9113C231.535 40.7396 229.768 39.0003 228.487 36.6935C227.223 34.3866 226.592 31.5214 226.592 28.0978C226.592 24.6925 227.168 21.7998 228.322 19.4197C229.475 17.0397 231.095 15.2272 233.183 13.9822C235.27 12.7372 237.705 12.1148 240.488 12.1148ZM240.488 16.9756C238.455 16.9756 236.808 17.6347 235.544 18.9529C234.299 20.2711 233.567 22.2026 233.347 24.7474H247.188C247.17 23.2278 246.914 21.8822 246.419 20.7104C245.943 19.5387 245.211 18.6233 244.222 17.9642C243.252 17.3051 242.007 16.9756 240.488 16.9756Z" fill="#212121"/>
<rect x="259.972" y="0.654663" width="10.1237" height="41.6196" fill="#F96300"/>
<rect x="272.907" y="0.654663" width="10.1237" height="41.6196" fill="#F5C800"/>
<rect x="285.843" y="0.654663" width="10.1237" height="41.6196" fill="#017BFF"/>
</svg>
